<svg width="83" height="96" viewBox="0 0 83 96" fill="none" xmlns="http://www.w3.org/2000/svg">
<path d="M64.1059 76.3472H70.404V82.5786H64.1059V76.3472ZM64.1059 63.8844H70.404V70.1158H64.1059V63.8844ZM64.1059 51.4216H70.404V57.653H64.1059V51.4216ZM53.8401 51.4216L57.8079 54.0388V51.4216H53.8401Z" fill="white"/>
<path d="M42.0628 38.9589V43.6636L48.3609 47.8074V45.1902H76.702V88.81H64.1059V95.0413H83V38.9589H42.0628Z" fill="white"/>
<path d="M36.3001 47.3712L57.8079 61.5476V95.0413H13.7217V62.2642L36.3001 47.3712ZM42.0628 88.81H51.5099V64.3829L36.3001 54.8177L20.0197 65.0684V88.81H29.4668V70.1158H42.0628V88.81Z" fill="white"/>
<path fill-rule="evenodd" clip-rule="evenodd" d="M52.1256 0.855713V31.8215H42.8742C41.6346 35.4246 39.4331 38.5418 36.3376 41.0943L36.3305 41.1001C33.5421 43.3906 30.1847 44.8295 26.4269 45.5857L49.6513 71.9485H27.3517L0.615479 41.2262V0.855713H52.1256ZM28.4241 15.193C29.8634 16.4186 30.8691 18.0681 31.441 20.1415H5.56393V26.873H31.7907C31.4263 28.9232 30.6033 30.5726 29.3218 31.8215C27.3245 33.7679 24.2135 34.7411 19.9887 34.7411H5.56393V39.3745L29.6052 67H38.6971L16.0547 41.2978H19.2893C20.416 41.2978 21.4944 41.2506 22.5246 41.1561C26.9833 40.7474 30.5383 39.4541 33.1895 37.2763C36.5116 34.5371 38.4349 31.0693 38.9594 26.873H47.1771V20.1415H38.7845C38.6114 19.1813 38.3766 18.2955 38.0802 17.4842C37.279 15.2913 36.0276 13.6418 34.326 12.5357H47.1771V5.80417H5.56393V12.5357H19.4641C23.3569 12.5357 26.3436 13.4215 28.4241 15.193Z" fill="#CB3827"/>
<path d="M47.1772 5.80414V12.5357H34.326C36.6573 14.051 38.1435 16.5863 38.7846 20.1415H47.1772V26.873H38.9594C38.4349 31.0693 36.5116 34.5371 33.1895 37.2763C29.9258 39.9573 25.2924 41.2977 19.2893 41.2977H16.0547L38.6972 67H29.6052L5.56396 39.3744V34.741H19.9887C26.9242 34.741 30.8583 32.1184 31.7908 26.873H5.56396V20.1415H31.4411C30.0423 15.0709 26.05 12.5357 19.4642 12.5357H5.56396V5.80414H47.1772Z" fill="white"/>
</svg>
