<svg width="26" height="29" viewBox="0 0 26 29" fill="none" xmlns="http://www.w3.org/2000/svg">
<path d="M22.7588 28.8742H2.96149C1.39952 28.8742 0.133301 27.5996 0.133301 26.0274V6.09984C0.133301 4.5276 1.39952 3.25304 2.96149 3.25304H5.78967V0.40625H8.61786V3.25304H17.1024V0.40625H19.9306V3.25304H22.7588C24.3208 3.25304 25.587 4.5276 25.587 6.09984V26.0274C25.587 27.5996 24.3208 28.8742 22.7588 28.8742ZM2.96149 11.7934V26.0274H22.7588V11.7934H2.96149ZM2.96149 6.09984V8.94663H22.7588V6.09984H2.96149ZM19.9306 23.1806H17.1024V20.3338H19.9306V23.1806ZM14.2742 23.1806H11.446V20.3338H14.2742V23.1806ZM8.61786 23.1806H5.78967V20.3338H8.61786V23.1806ZM19.9306 17.487H17.1024V14.6402H19.9306V17.487ZM14.2742 17.487H11.446V14.6402H14.2742V17.487ZM8.61786 17.487H5.78967V14.6402H8.61786V17.487Z" fill="white"/>
</svg>
