<svg width="21" height="26" viewBox="0 0 21 26" fill="none" xmlns="http://www.w3.org/2000/svg">
<path d="M10.1947 12.6402C8.81319 12.6402 7.68285 11.5098 7.68285 10.1283C7.68285 8.74679 8.81319 7.61644 10.1947 7.61644C11.5763 7.61644 12.7066 8.74679 12.7066 10.1283C12.7066 11.5098 11.5763 12.6402 10.1947 12.6402ZM17.7304 10.3795C17.7304 5.82045 14.4021 2.59269 10.1947 2.59269C5.98733 2.59269 2.65909 5.82045 2.65909 10.3795C2.65909 13.3184 5.10817 17.2118 10.1947 21.8588C15.2813 17.2118 17.7304 13.3184 17.7304 10.3795ZM10.1947 0.0808105C15.4697 0.0808105 20.2422 4.12493 20.2422 10.3795C20.2422 14.5492 16.8889 19.4851 10.1947 25.1996C3.50057 19.4851 0.147217 14.5492 0.147217 10.3795C0.147217 4.12493 4.91978 0.0808105 10.1947 0.0808105Z" fill="white"/>
</svg>
