<svg width="509" height="179" viewBox="0 0 509 179" fill="none" xmlns="http://www.w3.org/2000/svg">
<g clip-path="url(#clip0)">
<path d="M40.7191 124.644L28.9654 161.111H28.815L16.4166 124.644H0V177.667H10.9157V140.448H11.0876L24.0662 177.667H33.0695L46.0481 140.082H46.1985V177.667H57.1142V124.644H40.7191Z" fill="white"/>
<path d="M91.7095 139.265V159.391C91.7095 167.196 89.2599 170.378 83.5442 170.378C78.5805 170.378 76.797 167.239 76.797 160.939V139.265H66.2251V162.917C66.2251 172.421 69.0615 178.742 80.278 178.742C82.6222 178.779 84.9355 178.204 86.9893 177.073C89.0432 175.941 90.7664 174.293 91.9888 172.292H92.2252V177.624H102.26V139.265H91.7095Z" fill="white"/>
<path d="M131.375 146.21V139.265H123.64V127.74H113.089V139.287H106.643V146.21H113.089V168.959C113.089 176.721 118.655 178.097 125.187 178.097C127.249 178.128 129.31 178.006 131.354 177.731V169.496C130.282 169.732 129.185 169.84 128.088 169.819C124.521 169.819 123.618 168.916 123.618 165.347V146.21H131.375Z" fill="white"/>
<path d="M158.386 138.212C156.122 138.243 153.904 138.852 151.941 139.98C149.978 141.109 148.336 142.721 147.169 144.662H146.954V124.709H136.404V177.667H146.976V157.541C146.976 149.736 149.425 146.554 155.141 146.554C160.105 146.554 161.888 149.65 161.888 155.993V177.667H172.417V154.015C172.417 144.49 169.602 138.19 158.386 138.19" fill="white"/>
<path d="M205.938 139.265V159.391C205.938 167.196 203.467 170.378 197.773 170.378C192.788 170.378 191.004 167.239 191.004 160.939V139.265H180.497V162.917C180.497 172.421 183.311 178.742 194.528 178.742C196.875 178.779 199.191 178.203 201.248 177.072C203.305 175.941 205.033 174.294 206.26 172.292H206.475V177.624H216.51V139.265H205.938Z" fill="white"/>
<path d="M274.419 134.728V124.924H237.16V177.989H248.806V156.036H271.003V147.006H248.806V134.728H274.419Z" fill="white"/>
<path d="M290.922 139.566H280.393V177.989H290.922V139.566Z" fill="white"/>
<path d="M321.219 138.513C318.873 138.482 316.56 139.06 314.504 140.191C312.448 141.321 310.719 142.965 309.487 144.963H309.251V139.566H299.237V177.989H309.766V157.821C309.766 150.016 312.237 146.834 317.932 146.834C322.917 146.834 324.7 149.951 324.7 156.273V177.989H335.208V154.338C335.208 144.856 332.393 138.513 321.176 138.513" fill="white"/>
<path d="M377.71 169.41V149.435C377.71 140.211 368.514 138.513 360.843 138.513C352.247 138.513 343.395 141.566 342.793 151.414H353.343C353.709 147.264 356.223 145.63 360.327 145.63C364.023 145.63 367.16 146.361 367.16 150.833C367.611 159.434 341.761 150.08 341.611 167.54C341.611 175.431 347.327 179.043 354.697 179.043C357.055 179.162 359.413 178.802 361.629 177.985C363.844 177.168 365.872 175.912 367.59 174.291C367.688 175.562 367.933 176.818 368.32 178.032H379.064C377.985 175.301 377.53 172.362 377.732 169.432L377.71 169.41ZM367.203 163.132C367.203 165.519 366.881 171.991 358.608 171.991C355.191 171.991 352.162 170.937 352.162 167.067C352.162 163.196 355.127 162.014 358.393 161.412C361.659 160.81 365.376 160.745 367.16 159.262L367.203 163.132Z" fill="white"/>
<path d="M407.858 138.513C405.512 138.482 403.198 139.06 401.142 140.191C399.086 141.321 397.358 142.965 396.125 144.963H395.91V139.566H385.876V177.989H396.426V157.821C396.426 150.016 398.876 146.834 404.591 146.834C409.555 146.834 411.339 149.951 411.339 156.273V177.989H421.868V154.338C421.868 144.856 419.053 138.513 407.836 138.513" fill="white"/>
<path d="M456.42 163.261C455.753 168.013 453.003 171.066 448.039 171.066C441.421 171.066 439.272 164.615 439.272 158.939C439.272 153.263 441.421 146.447 448.254 146.447C449.204 146.343 450.165 146.434 451.079 146.713C451.993 146.993 452.84 147.455 453.569 148.073C454.299 148.69 454.895 149.45 455.323 150.305C455.75 151.16 455.999 152.093 456.054 153.048H466.282C465.681 143.243 457.301 138.491 448.233 138.491C435.748 138.491 428.636 147.35 428.636 159.305C428.636 170.808 436.415 178.978 447.975 178.978C458.139 178.978 465.036 173.41 466.454 163.239L456.42 163.261Z" fill="white"/>
<path d="M490.284 138.513C478.659 138.513 470.688 147.285 470.688 158.81C470.688 170.679 478.208 179.022 490.284 179.022C498.879 179.022 505.326 175.237 508.269 166.121H498.965C498.299 168.507 494.904 171.109 490.671 171.109C484.719 171.109 481.539 168.142 481.216 161.369H508.914C509.731 149.564 503.349 138.556 490.263 138.556L490.284 138.513ZM481.324 154.639C481.336 153.518 481.576 152.411 482.029 151.386C482.482 150.361 483.138 149.438 483.958 148.674C484.778 147.91 485.744 147.32 486.798 146.941C487.852 146.562 488.973 146.401 490.091 146.468C495.205 146.468 497.526 149.285 498.493 154.639H481.324Z" fill="white"/>
<path d="M290.922 124.924H280.371V133.61H290.922V124.924Z" fill="white"/>
<path d="M215.693 79.9856L209.763 96.3267H169.753C196.612 22.2326 196.849 21.351 196.956 21.351C197.064 21.351 193.518 62.2039 215.715 79.9856" fill="white"/>
<path d="M339.355 96.3267H299.237L293.307 79.9856C315.525 62.1179 312.065 21.351 312.065 21.351L339.355 96.3267Z" fill="white"/>
<path d="M237.03 21.351L220.205 67.6007C212.989 62.2453 207.126 55.272 203.089 47.2403C199.051 39.2085 196.951 30.3417 196.956 21.351H237.03Z" fill="white"/>
<path d="M288.794 67.6007C278.872 74.9685 266.845 78.9464 254.489 78.9464C242.134 78.9464 230.106 74.9685 220.184 67.6007L237.009 21.351C237.009 44.4866 271.969 44.4866 271.969 21.351L288.794 67.6007Z" fill="white"/>
<path d="M254.5 0L264.427 9.69718C272.592 18.2978 267.199 32.9403 255.338 33.6284C252.488 33.8275 249.647 33.1379 247.205 31.6543C244.763 30.1708 242.841 27.9664 241.702 25.3445C240.564 22.7226 240.266 19.8121 240.85 17.0138C241.433 14.2154 242.869 11.6668 244.959 9.71868L254.5 0Z" fill="white"/>
<path d="M312.065 21.351C312.071 30.3417 309.97 39.2085 305.933 47.2403C301.895 55.272 296.033 62.2453 288.816 67.6007L271.969 21.351H312.065Z" fill="white"/>
</g>
<defs>
<clipPath id="clip0">
<rect width="509" height="179" fill="white"/>
</clipPath>
</defs>
</svg>
