<svg width="404" height="142" viewBox="0 0 404 142" fill="none" xmlns="http://www.w3.org/2000/svg">
<g clip-path="url(#clip0)">
<path d="M0 98.8567H13.0289L22.8702 127.802H22.9832L32.2971 98.8567H45.326V140.945H36.6601V111.118H36.5396L26.231 140.945H19.0949L8.77884 111.412H8.66581V140.945H0V98.8567Z" fill="#A91F23"/>
<path d="M81.1571 140.923H73.1997V136.68H73.0188C72.0381 138.259 70.6642 139.557 69.0316 140.446C67.399 141.335 65.5636 141.785 63.705 141.752C54.8055 141.752 52.5675 136.74 52.5675 129.197V110.47H60.9394V127.682C60.9394 132.693 62.3561 135.165 66.3047 135.165C70.826 135.165 72.7852 132.633 72.7852 126.439V110.462H81.1571V140.923Z" fill="#A91F23"/>
<path d="M98.1347 110.47H104.261V116.054H98.1347V131.126C98.1347 133.959 98.843 134.66 101.669 134.66C102.539 134.678 103.408 134.6 104.261 134.427V140.968C102.641 141.19 101.006 141.288 99.3705 141.262C94.1786 141.262 89.7628 140.139 89.7628 134.012V116.054H84.6914V110.455H89.7628V101.336H98.1347V110.47Z" fill="#A91F23"/>
<path d="M108.27 98.8567H116.642V114.682H116.8C117.73 113.15 119.036 111.881 120.593 110.994C122.15 110.106 123.907 109.63 125.699 109.61C134.599 109.61 136.837 114.622 136.837 122.165V140.922H128.487V123.733C128.487 118.721 127.071 116.25 123.122 116.25C118.601 116.25 116.642 118.782 116.642 124.969V140.922H108.27V98.8567Z" fill="#A91F23"/>
<path d="M171.809 140.923H163.844V136.68H163.663C162.683 138.259 161.309 139.557 159.676 140.446C158.043 141.335 156.208 141.785 154.349 141.752C145.45 141.752 143.212 136.74 143.212 129.197V110.47H151.584V127.682C151.584 132.693 153 135.165 156.949 135.165C161.47 135.165 163.43 132.633 163.43 126.439V110.462H171.809V140.923Z" fill="#A91F23"/>
<path d="M188.229 99.0903H217.821V106.875H197.483V116.596H215.108V123.793H197.483V141.179H188.229V99.0903Z" fill="#CB3827"/>
<path d="M230.903 110.703H222.531V141.179H230.903V110.703Z" fill="#CB3827"/>
<path d="M237.503 110.703H245.461V114.946H245.657C246.638 113.367 248.011 112.069 249.644 111.18C251.277 110.291 253.112 109.841 254.971 109.874C263.87 109.874 266.108 114.886 266.108 122.429V141.171H257.714V123.966C257.714 118.955 256.297 116.483 252.348 116.483C247.827 116.483 245.868 119.015 245.868 125.202V141.179H237.503V110.703Z" fill="#CB3827"/>
<path d="M272.099 120.078C272.566 112.301 279.582 109.882 286.416 109.882C292.49 109.882 299.799 111.238 299.799 118.548V134.374C299.799 137.139 300.093 139.913 300.862 141.156H292.377C292.063 140.201 291.865 139.212 291.789 138.209C289.137 140.975 285.309 141.977 281.533 141.977C275.701 141.977 271.157 139.091 271.157 132.844C271.27 118.993 291.789 126.416 291.435 119.581C291.435 116.046 288.963 115.458 286.009 115.458C282.769 115.458 280.735 116.755 280.471 120.055L272.099 120.078ZM291.427 126.265C290.011 127.501 287.064 127.561 284.472 128.036C281.88 128.511 279.521 129.453 279.521 132.512C279.521 135.572 281.94 136.401 284.653 136.401C291.194 136.401 291.435 131.269 291.435 129.385L291.427 126.265Z" fill="#CB3827"/>
<path d="M306.28 110.703H314.23V114.946H314.411C315.391 113.367 316.765 112.069 318.398 111.18C320.03 110.291 321.866 109.841 323.724 109.874C332.624 109.874 334.862 114.886 334.862 122.429V141.171H326.497V123.966C326.497 118.955 325.081 116.483 321.132 116.483C316.611 116.483 314.652 119.015 314.652 125.202V141.179H306.28V110.703Z" fill="#CB3827"/>
<path d="M361.982 121.434C361.447 117.96 359.39 116.159 355.795 116.159C350.43 116.159 348.659 121.585 348.659 126.061C348.659 130.538 350.37 135.67 355.615 135.67C359.563 135.67 361.748 133.251 362.276 129.483H370.354C369.231 137.561 363.753 141.977 355.682 141.977C346.482 141.977 340.295 135.496 340.295 126.355C340.295 116.868 345.954 109.852 355.856 109.852C363.045 109.852 369.706 113.62 370.173 121.404L361.982 121.434Z" fill="#CB3827"/>
<path d="M381.959 127.975C382.192 133.341 384.732 135.7 389.441 135.7C392.802 135.7 395.515 133.635 396.042 131.751H403.412C401.054 139.001 396.042 142.007 389.147 142.007C379.54 142.007 373.587 135.406 373.587 125.978C373.587 116.845 379.894 109.889 389.147 109.889C399.524 109.889 404.588 118.608 403.947 127.975H381.959ZM395.575 122.7C394.822 118.458 392.983 116.219 388.914 116.219C383.488 116.219 382.132 120.342 381.959 122.7H395.575Z" fill="#CB3827"/>
<path d="M230.903 99.0903H222.531V105.986H230.903V99.0903Z" fill="#F07722"/>
<path d="M174.771 53.6258L166.482 76.4146H134.667C156.572 16.2098 156.226 16.9333 156.316 16.9333C156.31 24.0662 157.977 31.1011 161.182 37.4734C164.387 43.8457 169.041 49.3779 174.771 53.6258Z" fill="#A91F23"/>
<path d="M269.333 76.4073H237.519L229.229 53.6186C234.962 49.3731 239.619 43.8416 242.826 37.4689C246.032 31.0962 247.699 24.06 247.691 16.926L269.333 76.4073Z" fill="#A91F23"/>
<path d="M188.123 16.9333L174.771 53.6259C169.041 49.378 164.387 43.8458 161.182 37.4735C157.977 31.1012 156.31 24.0663 156.316 16.9333H188.123Z" fill="#CB3827"/>
<path d="M229.222 53.6259C221.347 59.4684 211.802 62.6227 201.996 62.6227C192.191 62.6227 182.645 59.4684 174.771 53.6259L188.123 16.9333C188.123 35.2759 215.869 35.2834 215.869 16.9333L229.222 53.6259Z" fill="#F07722"/>
<path d="M201.996 0L209.878 7.69421C216.359 14.5519 212.079 26.1347 202.66 26.6773C191.891 27.3028 187.302 14.5067 194.468 7.71682L201.996 0Z" fill="#F07722"/>
<path d="M232.801 63.4453L229.229 53.6485C234.965 49.3999 239.623 43.8647 242.829 37.488C246.035 31.1112 247.701 24.071 247.691 16.9333C247.691 16.9333 250.427 49.2777 232.801 63.4453Z" fill="#8A1316"/>
<path d="M171.199 63.4451L174.771 53.6484C169.04 49.4017 164.384 43.8698 161.179 37.4972C157.974 31.1246 156.309 24.0891 156.316 16.9558C156.316 16.9558 153.573 49.3001 171.199 63.4677" fill="#8A1316"/>
<path d="M247.691 16.9333C247.698 24.0672 246.031 31.1032 242.825 37.4758C239.618 43.8485 234.962 49.38 229.23 53.6259L215.862 16.9333H247.691Z" fill="#CB3827"/>
</g>
<defs>
<clipPath id="clip0">
<rect width="404" height="142" fill="white"/>
</clipPath>
</defs>
</svg>
