<svg width="168" height="96" viewBox="0 0 168 96" fill="none" xmlns="http://www.w3.org/2000/svg">
<g clip-path="url(#clip0)">
<path d="M45.5078 78.99L39.6461 95.1485H-0.000244141C26.635 21.945 26.868 21.0868 26.9784 21.0868C27.0888 21.0868 23.5693 61.2991 45.5078 78.99Z" fill="white"/>
<path d="M167.745 95.1363H128.099L122.225 78.99C144.188 61.2991 140.767 21.0868 140.767 21.0868L167.745 95.1363Z" fill="white"/>
<path d="M66.5878 21.0868L49.9469 66.767C42.8157 61.4755 37.0235 54.5873 33.0349 46.6546C29.0462 38.7219 26.9719 29.9653 26.9783 21.0868H66.5878Z" fill="white"/>
<path d="M117.724 66.7672C107.917 74.0407 96.0288 77.9675 83.8172 77.9675C71.6055 77.9675 59.7177 74.0407 49.9099 66.7672L66.5876 21.0747C66.5876 43.9148 101.145 43.9271 101.145 21.0747L117.724 66.7672Z" fill="white"/>
<path d="M83.8667 0L93.6771 9.57494C101.746 18.1568 96.4118 32.5376 84.6883 33.2119C71.2848 33.9843 65.558 18.0588 74.4855 9.59946L83.8667 0Z" fill="white"/>
<path d="M140.767 21.0868C140.773 29.9666 138.697 38.7241 134.706 46.6571C130.715 54.59 124.92 61.4774 117.786 66.767L101.145 21.0868H140.767Z" fill="white"/>
</g>
<defs>
<clipPath id="clip0">
<rect width="167.746" height="95.1487" fill="white"/>
</clipPath>
</defs>
</svg>
