<svg width="43" height="43" viewBox="0 0 43 43" fill="none" xmlns="http://www.w3.org/2000/svg">
<circle cx="21.6123" cy="21.427" r="21.3215" fill="#CB3827"/>
<g clip-path="url(#clip0)">
<path d="M14.5543 25.9986L13.5018 28.8723H6.38281C11.1655 15.8533 11.2073 15.7007 11.2272 15.7007C11.247 15.7007 10.615 22.8523 14.5543 25.9986Z" fill="white"/>
<path d="M36.5036 28.8701H29.3846L28.3298 25.9986C32.2736 22.8523 31.6592 15.7007 31.6592 15.7007L36.5036 28.8701Z" fill="white"/>
<path d="M18.3394 15.7007L15.3514 23.8247C14.0708 22.8837 13.0308 21.6586 12.3146 20.2478C11.5984 18.837 11.2259 17.2797 11.2271 15.7007H18.3394Z" fill="white"/>
<path d="M27.5222 23.8247C25.761 25.1183 23.6264 25.8167 21.4337 25.8167C19.2409 25.8167 17.1063 25.1183 15.3452 23.8247L18.3399 15.6985C18.3399 19.7605 24.5451 19.7627 24.5451 15.6985L27.5222 23.8247Z" fill="white"/>
<path d="M21.4422 11.9504L23.2038 13.6533C24.6527 15.1796 23.6949 17.7371 21.5898 17.8571C19.183 17.9944 18.1547 15.1621 19.7577 13.6577L21.4422 11.9504Z" fill="white"/>
<path d="M31.6595 15.7007C31.6606 17.2799 31.2878 18.8374 30.5712 20.2483C29.8546 21.6591 28.814 22.884 27.533 23.8247L24.5449 15.7007H31.6595Z" fill="white"/>
</g>
<defs>
<clipPath id="clip0">
<rect width="30.1208" height="16.9218" fill="white" transform="translate(6.38281 11.9507)"/>
</clipPath>
</defs>
</svg>
