<svg width="25" height="25" viewBox="0 0 25 25" fill="none" xmlns="http://www.w3.org/2000/svg">
<path d="M12.1947 14.8937C14.8583 14.8937 17.0175 12.7345 17.0175 10.0709C17.0175 7.40734 14.8583 5.2481 12.1947 5.2481C9.53114 5.2481 7.3719 7.40734 7.3719 10.0709C7.3719 12.7345 9.53114 14.8937 12.1947 14.8937ZM12.1947 7.6595C13.5265 7.6595 14.6061 8.73912 14.6061 10.0709C14.6061 11.4027 13.5265 12.4823 12.1947 12.4823C10.8629 12.4823 9.7833 11.4027 9.7833 10.0709C9.7833 8.73912 10.8629 7.6595 12.1947 7.6595Z" fill="white"/>
<path d="M2.5491 24.5393C1.21732 24.5393 0.137695 23.4597 0.137695 22.1279V2.83669C0.137695 1.50491 1.21732 0.425293 2.5491 0.425293H21.8403C23.1721 0.425293 24.2517 1.50491 24.2517 2.83669V22.1279C24.2517 23.4597 23.1721 24.5393 21.8403 24.5393H2.5491ZM2.5491 2.83669V22.1279H6.1662C6.1662 18.7985 8.86525 16.0994 12.1947 16.0994C15.5242 16.0994 18.2232 18.7985 18.2232 22.1279H21.8403V2.83669H2.5491ZM15.8118 22.1279C15.8118 20.1302 14.1924 18.5108 12.1947 18.5108C10.197 18.5108 8.5776 20.1302 8.5776 22.1279H15.8118Z" fill="white"/>
</svg>
