<svg width="27" height="25" viewBox="0 0 27 25" fill="none" xmlns="http://www.w3.org/2000/svg">
<path d="M23.9029 2.24005C23.6126 1.37554 22.7999 0.760132 21.842 0.760132H5.87767C4.91981 0.760132 4.12159 1.37554 3.81681 2.24005L0.798096 11.017V22.7391C0.798096 23.5449 1.45118 24.2043 2.2494 24.2043H3.70071C4.49893 24.2043 5.15201 23.5449 5.15201 22.7391V21.2738H22.5677V22.7391C22.5677 23.5449 23.2208 24.2043 24.019 24.2043H25.4703C26.2685 24.2043 26.9216 23.5449 26.9216 22.7391V11.017L23.9029 2.24005ZM6.38562 3.69065H21.3196L22.887 8.24762H4.81821L6.38562 3.69065ZM24.019 18.3433H3.70071V11.017H24.019V18.3433Z" fill="white"/>
<path d="M7.32897 16.878C8.53128 16.878 9.50593 15.894 9.50593 14.6801C9.50593 13.4663 8.53128 12.4822 7.32897 12.4822C6.12667 12.4822 5.15201 13.4663 5.15201 14.6801C5.15201 15.894 6.12667 16.878 7.32897 16.878Z" fill="white"/>
<path d="M20.3907 16.878C21.593 16.878 22.5677 15.894 22.5677 14.6801C22.5677 13.4663 21.593 12.4822 20.3907 12.4822C19.1884 12.4822 18.2138 13.4663 18.2138 14.6801C18.2138 15.894 19.1884 16.878 20.3907 16.878Z" fill="white"/>
</svg>
